<?xml version="1.0" encoding="utf-8"?>
<!-- Generator: Adobe Illustrator 21.0.2, SVG Export Plug-In . SVG Version: 6.00 Build 0)  -->
<svg version="1.1" id="Layer_1" xmlns="http://www.w3.org/2000/svg" xmlns:xlink="http://www.w3.org/1999/xlink" x="0px" y="0px"
	 viewBox="0 0 100 100" style="enable-background:new 0 0 100 100;" xml:space="preserve">
<g>
	<path d="M77,5H23c-5.5,0-10,4.5-10,10v70c0,5.5,4.5,10,10,10h54c5.5,0,10-4.5,10-10V15C87,9.5,82.5,5,77,5z M83,85c0,3.3-2.7,6-6,6
		H23c-3.3,0-6-2.7-6-6V15c0-3.3,2.7-6,6-6h54c3.3,0,6,2.7,6,6V85z"/>
	<path d="M71,13H29c-3.3,0-6,2.7-6,6v8c0,3.3,2.7,6,6,6h42c3.3,0,6-2.7,6-6v-8C77,15.7,74.3,13,71,13z M73,27c0,1.1-0.9,2-2,2H29
		c-1.1,0-2-0.9-2-2v-8c0-1.1,0.9-2,2-2h42c1.1,0,2,0.9,2,2V27z"/>
	<path d="M71,55h-2c-3.3,0-6,2.7-6,6v20c0,3.3,2.7,6,6,6h2c3.3,0,6-2.7,6-6V61C77,57.7,74.3,55,71,55z M73,81c0,1.1-0.9,2-2,2h-2
		c-1.1,0-2-0.9-2-2V61c0-1.1,0.9-2,2-2h2c1.1,0,2,0.9,2,2V81z"/>
	<path d="M31,37h-2c-3.3,0-6,2.7-6,6v2c0,3.3,2.7,6,6,6h2c3.3,0,6-2.7,6-6v-2C37,39.7,34.3,37,31,37z M33,45c0,1.1-0.9,2-2,2h-2
		c-1.1,0-2-0.9-2-2v-2c0-1.1,0.9-2,2-2h2c1.1,0,2,0.9,2,2V45z"/>
	<path d="M51,37h-2c-3.3,0-6,2.7-6,6v2c0,3.3,2.7,6,6,6h2c3.3,0,6-2.7,6-6v-2C57,39.7,54.3,37,51,37z M53,45c0,1.1-0.9,2-2,2h-2
		c-1.1,0-2-0.9-2-2v-2c0-1.1,0.9-2,2-2h2c1.1,0,2,0.9,2,2V45z"/>
	<path d="M31,55h-2c-3.3,0-6,2.7-6,6v2c0,3.3,2.7,6,6,6h2c3.3,0,6-2.7,6-6v-2C37,57.7,34.3,55,31,55z M33,63c0,1.1-0.9,2-2,2h-2
		c-1.1,0-2-0.9-2-2v-2c0-1.1,0.9-2,2-2h2c1.1,0,2,0.9,2,2V63z"/>
	<path d="M51,55h-2c-3.3,0-6,2.7-6,6v2c0,3.3,2.7,6,6,6h2c3.3,0,6-2.7,6-6v-2C57,57.7,54.3,55,51,55z M53,63c0,1.1-0.9,2-2,2h-2
		c-1.1,0-2-0.9-2-2v-2c0-1.1,0.9-2,2-2h2c1.1,0,2,0.9,2,2V63z"/>
	<path d="M31,73h-2c-3.3,0-6,2.7-6,6v2c0,3.3,2.7,6,6,6h2c3.3,0,6-2.7,6-6v-2C37,75.7,34.3,73,31,73z M33,81c0,1.1-0.9,2-2,2h-2
		c-1.1,0-2-0.9-2-2v-2c0-1.1,0.9-2,2-2h2c1.1,0,2,0.9,2,2V81z"/>
	<path d="M51,73h-2c-3.3,0-6,2.7-6,6v2c0,3.3,2.7,6,6,6h2c3.3,0,6-2.7,6-6v-2C57,75.7,54.3,73,51,73z M53,81c0,1.1-0.9,2-2,2h-2
		c-1.1,0-2-0.9-2-2v-2c0-1.1,0.9-2,2-2h2c1.1,0,2,0.9,2,2V81z"/>
	<path d="M71,37h-2c-3.3,0-6,2.7-6,6v2c0,3.3,2.7,6,6,6h2c3.3,0,6-2.7,6-6v-2C77,39.7,74.3,37,71,37z M73,45c0,1.1-0.9,2-2,2h-2
		c-1.1,0-2-0.9-2-2v-2c0-1.1,0.9-2,2-2h2c1.1,0,2,0.9,2,2V45z"/>
</g>
</svg>
